<?xml version="1.0" standalone="no"?>
<!DOCTYPE svg PUBLIC "-//W3C//DTD SVG 20010904//EN"
 "http://www.w3.org/TR/2001/REC-SVG-20010904/DTD/svg10.dtd">
<svg version="1.0" xmlns="http://www.w3.org/2000/svg"
 width="512.000000pt" height="100.000000pt" viewBox="0 0 512.000000 100.000000"
 preserveAspectRatio="xMidYMid meet">

<g transform="translate(0.000000,100.000000) scale(0.100000,-0.100000)"
fill="#000000" stroke="none">
<path d="M483 982 c-134 -48 -216 -167 -217 -312 0 -61 6 -87 28 -135 42 -92
118 -160 214 -189 l22 -7 -20 52 c-14 34 -37 66 -66 92 -64 57 -88 107 -88
187 0 100 58 188 150 226 97 41 233 -1 289 -88 29 -45 32 -47 77 -47 47 -1 47
-1 38 24 -29 77 -93 147 -170 186 -62 31 -185 37 -257 11z"/>
<path d="M555 845 c-28 -27 -27 -59 3 -82 51 -41 120 28 80 79 -24 30 -56 31
-83 3z"/>
<path d="M1116 790 c-69 -21 -103 -93 -73 -156 24 -49 68 -68 155 -65 31 1 32
3 32 42 0 37 -2 40 -22 34 -13 -4 -25 -7 -28 -7 -49 -1 -70 30 -45 68 16 26
44 31 76 14 17 -10 19 -7 19 28 0 33 -4 41 -22 46 -30 8 -56 6 -92 -4z"/>
<path d="M2170 784 c-49 -21 -70 -51 -70 -101 0 -77 69 -126 161 -115 23 3 28
9 32 40 2 20 3 38 2 40 -1 1 -13 -2 -27 -7 -53 -20 -100 36 -62 74 12 12 27
15 51 12 32 -6 33 -5 33 28 0 48 -49 60 -120 29z"/>
<path d="M3610 788 c-68 -36 -62 -109 10 -128 22 -6 40 -15 40 -20 0 -18 -20
-20 -54 -6 -34 14 -34 14 -46 -15 -7 -16 -11 -32 -8 -34 12 -12 103 -22 136
-14 38 8 59 29 69 67 7 30 -19 58 -65 69 -40 9 -56 33 -22 33 12 0 29 -4 39
-10 15 -7 21 -4 30 17 7 15 8 30 3 35 -16 16 -105 20 -132 6z"/>
<path d="M4810 788 c-68 -36 -62 -109 10 -128 22 -6 40 -15 40 -20 0 -18 -20
-20 -54 -6 -34 14 -34 14 -46 -15 -7 -16 -11 -32 -8 -34 12 -12 103 -22 136
-14 38 8 59 29 69 67 7 30 -19 58 -65 69 -40 9 -56 33 -22 33 12 0 29 -4 39
-10 15 -7 21 -4 30 17 7 15 8 30 3 35 -16 16 -105 20 -132 6z"/>
<path d="M1280 680 l0 -110 95 0 95 0 0 35 0 35 -50 0 -50 0 0 75 0 75 -45 0
-45 0 0 -110z"/>
<path d="M1510 680 l0 -110 45 0 45 0 0 110 0 110 -45 0 -45 0 0 -110z"/>
<path d="M1650 680 l0 -110 45 0 45 0 0 57 0 56 41 -56 c38 -55 42 -57 85 -57
l44 0 0 110 0 110 -46 0 -46 0 4 -56 3 -55 -23 28 c-13 15 -30 40 -40 56 -14
23 -23 27 -64 27 l-48 0 0 -110z"/>
<path d="M1960 680 l0 -110 45 0 45 0 0 110 0 110 -45 0 -45 0 0 -110z"/>
<path d="M2411 768 c-5 -13 -25 -62 -44 -110 l-35 -88 49 0 c37 0 49 4 49 15
0 11 11 15 39 15 25 0 41 -5 45 -15 4 -10 20 -15 52 -15 40 0 45 2 40 18 -4 9
-23 59 -43 110 l-36 92 -54 0 c-46 0 -55 -3 -62 -22z m69 -60 c0 -7 3 -23 6
-35 5 -19 2 -23 -16 -23 -16 0 -20 4 -16 16 3 9 6 24 6 35 0 10 5 19 10 19 6
0 10 -6 10 -12z"/>
<path d="M2774 774 c4 -9 25 -59 48 -111 l41 -93 42 0 43 0 42 98 c23 53 44
103 47 110 4 10 -6 12 -42 10 l-48 -3 -22 -63 -21 -64 -20 64 -20 63 -48 3
c-42 3 -48 1 -42 -14z"/>
<path d="M3060 680 l0 -110 85 0 85 0 0 30 c0 29 -2 30 -46 30 -56 0 -57 23
-1 28 32 3 37 7 37 28 0 21 -4 24 -41 24 -55 0 -47 24 9 28 37 3 42 6 42 28 0
24 -2 24 -85 24 l-85 0 0 -110z"/>
<path d="M3270 680 l0 -110 44 0 c44 0 45 0 48 38 l3 37 22 -37 c21 -36 25
-38 74 -38 l51 0 -31 39 c-36 46 -37 52 -11 69 13 8 20 23 20 42 0 55 -28 70
-130 70 l-90 0 0 -110z m135 35 c0 -13 -8 -21 -22 -23 -19 -3 -23 1 -23 23 0
22 4 26 23 23 14 -2 22 -10 22 -23z"/>
<path d="M3866 782 c-2 -4 -14 -30 -24 -58 -11 -27 -29 -73 -41 -101 l-21 -53
50 0 c38 0 50 4 50 15 0 11 11 15 40 15 29 0 40 -4 40 -15 0 -11 12 -15 51
-15 28 0 49 4 47 9 -1 4 -21 54 -43 110 l-40 101 -52 0 c-28 0 -54 -4 -57 -8z
m68 -104 c5 -24 3 -28 -15 -28 -17 0 -20 4 -15 23 3 12 6 29 6 37 0 21 16 0
24 -32z"/>
<path d="M4100 680 l0 -110 90 0 90 0 0 35 c0 35 0 35 -45 35 l-45 0 0 75 0
75 -45 0 -45 0 0 -110z"/>
<path d="M4310 680 l0 -110 90 0 90 0 0 35 c0 35 0 35 -45 35 l-45 0 0 75 0
75 -45 0 -45 0 0 -110z"/>
<path d="M4530 680 l0 -110 85 0 85 0 0 30 c0 28 -2 30 -40 30 -29 0 -40 4
-40 15 0 10 11 15 35 15 31 0 35 3 35 25 0 22 -4 25 -35 25 -24 0 -35 5 -35
15 0 11 11 15 40 15 36 0 40 3 40 25 0 25 -1 25 -85 25 l-85 0 0 -110z"/>
<path d="M410 705 c0 -9 173 -429 179 -437 6 -6 42 78 178 410 l13 32 -59 0
-59 0 -32 -95 c-17 -52 -35 -93 -39 -91 -4 3 -20 45 -36 95 l-29 91 -58 0
c-32 0 -58 -2 -58 -5z"/>
<path d="M808 548 c-13 -23 -43 -57 -68 -76 -30 -23 -51 -50 -63 -80 -10 -24
-16 -46 -14 -49 13 -13 123 44 165 85 42 42 92 124 92 152 0 5 -20 10 -44 10
-42 0 -46 -2 -68 -42z"/>
<path d="M1623 375 c-8 -34 -7 -45 1 -42 6 2 12 13 14 25 4 25 22 30 22 7 0
-20 16 -19 30 3 10 14 11 13 7 -10 -2 -16 -1 -28 4 -28 11 0 16 11 24 53 8 43
-6 50 -35 15 l-17 -22 -7 22 c-12 36 -32 25 -43 -23z"/>
<path d="M1757 403 c-20 -73 -20 -73 20 -72 24 1 29 3 16 6 -13 2 -23 11 -23
19 0 8 10 15 23 15 16 1 18 2 5 6 -28 7 -21 31 10 36 22 3 20 4 -10 6 -27 1
-38 -3 -41 -16z"/>
<path d="M1846 393 c-4 -15 -9 -36 -12 -45 -4 -15 1 -18 30 -18 42 0 68 24 64
59 -3 22 -9 26 -39 29 -33 3 -37 0 -43 -25z m62 -9 c3 -23 -20 -47 -41 -42
-22 5 -1 70 21 66 9 -2 18 -13 20 -24z"/>
<path d="M1957 414 c14 -6 6 -65 -11 -76 -6 -4 0 -8 14 -8 22 0 25 5 26 36 0
20 7 40 15 45 10 6 3 9 -21 8 -19 0 -30 -3 -23 -5z"/>
<path d="M2032 408 c-15 -20 -22 -52 -14 -65 11 -17 72 -21 72 -4 0 4 -11 6
-25 3 -21 -4 -25 -1 -25 21 0 29 23 52 45 44 8 -4 17 -2 20 3 9 15 -61 12 -73
-2z"/>
<path d="M2127 414 c14 -6 0 -64 -19 -76 -8 -5 1 -7 22 -7 19 0 30 3 24 5 -15
6 -5 56 14 72 13 10 11 12 -19 11 -19 0 -29 -3 -22 -5z"/>
<path d="M2191 383 c-13 -47 -13 -53 -2 -53 5 0 13 15 17 33 l7 32 15 -32 c16
-33 42 -45 42 -19 0 7 3 28 6 45 4 20 3 31 -5 31 -6 0 -11 -11 -11 -25 0 -14
-4 -25 -9 -25 -5 0 -12 11 -15 25 -9 37 -34 30 -45 -12z"/>
<path d="M2312 379 c-13 -22 -20 -44 -16 -47 4 -4 9 -1 11 6 6 14 39 16 48 2
13 -22 20 -8 17 35 -5 58 -28 60 -60 4z m34 -16 c-10 -10 -19 5 -10 18 6 11 8
11 12 0 2 -7 1 -15 -2 -18z"/>
<path d="M2457 413 c-2 -4 -7 -25 -11 -45 l-7 -38 35 0 c43 0 77 40 59 69 -11
17 -68 28 -76 14z m52 -17 c17 -20 -3 -56 -30 -56 -16 0 -18 5 -13 28 11 47
22 54 43 28z"/>
<path d="M2567 413 c-2 -5 -7 -25 -11 -45 l-7 -38 38 1 c31 2 33 3 10 6 -33 5
-31 25 4 33 l24 6 -25 7 c-27 7 -20 22 15 30 13 3 9 5 -12 6 -17 0 -34 -2 -36
-6z"/>
<path d="M2694 395 c-27 -42 -1 -79 49 -67 27 7 20 20 -8 14 -21 -4 -25 -1
-25 21 0 29 23 52 45 44 8 -4 17 -2 20 3 4 6 -9 10 -29 10 -27 0 -40 -6 -52
-25z"/>
<path d="M2797 378 c-25 -43 -27 -62 -5 -40 16 16 45 15 51 0 10 -28 19 3 12
41 -9 53 -26 52 -58 -1z m43 -3 c0 -8 -7 -15 -15 -15 -9 0 -12 6 -9 15 4 8 10
15 15 15 5 0 9 -7 9 -15z"/>
<path d="M2897 403 c-20 -73 -20 -73 20 -72 29 2 32 3 11 6 -24 4 -26 6 -17
36 11 40 11 47 0 47 -5 0 -12 -8 -14 -17z"/>
<path d="M2984 384 c0 -20 -7 -40 -15 -45 -10 -6 -8 -9 11 -9 22 0 25 5 27 37
1 20 8 40 15 44 9 6 5 9 -12 9 -22 0 -25 -5 -26 -36z"/>
<path d="M3046 389 c-11 -57 -9 -60 31 -57 71 6 79 88 9 88 -30 0 -34 -4 -40
-31z m59 -8 c0 -23 -28 -51 -40 -40 -3 3 -2 20 1 38 8 38 39 40 39 2z"/>
<path d="M3166 378 c-25 -42 -27 -63 -4 -40 16 16 45 15 51 0 9 -27 17 2 11
41 -8 53 -26 52 -58 -1z m44 -9 c0 -5 -7 -9 -15 -9 -15 0 -20 12 -9 23 8 8 24
-1 24 -14z"/>
<path d="M3267 413 c-2 -5 -7 -25 -11 -45 -7 -38 -7 -38 27 -38 52 0 85 48 55
78 -13 13 -64 16 -71 5z m52 -17 c17 -20 -3 -56 -30 -56 -16 0 -18 5 -13 28
11 47 22 54 43 28z"/>
<path d="M3422 379 c-13 -22 -20 -44 -16 -47 4 -4 9 -1 11 6 6 15 35 16 51 0
17 -17 19 -9 14 40 -5 55 -29 56 -60 1z m34 -16 c-10 -10 -19 5 -10 18 6 11 8
11 12 0 2 -7 1 -15 -2 -18z"/>
<path d="M3513 375 l-10 -45 36 1 c23 1 28 3 13 6 -20 4 -21 8 -16 44 9 54
-10 50 -23 -6z"/>
<path d="M3652 379 c-13 -22 -20 -44 -16 -47 4 -4 9 -1 11 6 6 15 35 16 51 0
17 -17 19 -9 14 40 -5 55 -29 56 -60 1z m34 -16 c-10 -10 -19 5 -10 18 6 11 8
11 12 0 2 -7 1 -15 -2 -18z"/>
<path d="M3743 375 l-10 -45 36 1 c23 1 28 3 13 6 -20 4 -21 8 -16 44 9 54
-10 50 -23 -6z"/>
<path d="M3836 401 c-37 -40 7 -98 50 -66 17 12 16 13 -9 8 -32 -6 -44 15 -27
47 9 16 18 21 36 17 13 -2 24 0 24 4 0 17 -57 9 -74 -10z"/>
<path d="M3934 379 c-25 -40 -26 -65 -2 -41 16 16 45 15 51 0 9 -26 16 -1 10
40 -7 54 -25 54 -59 1z m32 -16 c-10 -10 -19 5 -10 18 6 11 8 11 12 0 2 -7 1
-15 -2 -18z"/>
<path d="M4036 412 c-2 -4 -7 -24 -11 -45 -9 -46 10 -51 20 -4 l7 32 16 -32
c24 -49 35 -45 46 20 4 23 3 37 -4 37 -5 0 -10 -9 -10 -19 0 -30 -19 -35 -26
-6 -6 24 -27 34 -38 17z"/>
<path d="M4146 398 c-9 -12 -16 -31 -16 -41 0 -20 35 -36 62 -29 27 7 21 18
-9 17 -18 0 -29 6 -31 16 -4 23 27 52 49 46 11 -3 19 -1 19 4 0 19 -59 9 -74
-13z"/>
<path d="M4236 389 c-11 -54 -8 -59 27 -58 23 1 26 3 10 6 -33 6 -29 33 5 34
23 2 24 2 5 6 -32 6 -29 31 5 36 22 3 21 4 -9 6 -33 1 -37 -2 -43 -30z"/>
<path d="M4371 383 c-15 -53 -15 -53 22 -53 52 0 85 48 55 78 -7 7 -24 12 -40
12 -23 0 -29 -6 -37 -37z m58 13 c17 -20 -3 -56 -30 -56 -16 0 -18 5 -13 28
11 47 22 54 43 28z"/>
<path d="M4481 383 c-15 -53 -15 -53 27 -52 31 2 32 3 9 6 -33 5 -31 25 4 33
l24 6 -25 7 c-29 7 -18 23 20 30 18 3 15 5 -12 6 -35 1 -38 -1 -47 -36z"/>
<path d="M4623 413 c20 -5 20 -7 8 -51 -7 -24 -7 -32 3 -32 8 0 16 17 20 39 4
26 12 41 24 44 9 3 -3 5 -28 5 -25 0 -37 -2 -27 -5z"/>
<path d="M4712 408 c-15 -20 -22 -52 -14 -64 32 -47 117 7 90 59 -10 20 -61
23 -76 5z m53 -9 c4 -5 4 -21 1 -35 -9 -32 -46 -34 -46 -1 0 35 31 60 45 36z"/>
<path d="M4816 389 c-11 -57 -9 -60 31 -57 71 6 79 88 9 88 -30 0 -34 -4 -40
-31z m59 -8 c0 -23 -28 -51 -40 -40 -3 3 -2 20 1 38 8 38 39 40 39 2z"/>
<path d="M4930 401 c-24 -47 2 -87 45 -71 32 12 48 37 41 65 -5 21 -12 25 -41
25 -24 0 -37 -6 -45 -19z m64 -7 c8 -22 -12 -56 -32 -52 -21 4 -28 34 -12 53
16 20 36 19 44 -1z"/>
<path d="M5047 413 c-16 -15 -6 -41 18 -47 36 -9 32 -29 -5 -24 -17 3 -33 1
-36 -4 -3 -5 14 -8 37 -6 53 4 67 32 25 48 -34 12 -34 34 -1 28 14 -3 28 -1
31 3 6 10 -59 12 -69 2z"/>
</g>
</svg>
